<?xml version="1.0" standalone="no"?>
<!DOCTYPE svg PUBLIC "-//W3C//DTD SVG 20010904//EN"
 "http://www.w3.org/TR/2001/REC-SVG-20010904/DTD/svg10.dtd">
<svg version="1.0" xmlns="http://www.w3.org/2000/svg"
 width="1268.000000pt" height="1034.000000pt" viewBox="0 0 1268.000000 1034.000000"
 preserveAspectRatio="xMidYMid meet">

<g transform="translate(0.000000,1034.000000) scale(0.100000,-0.100000)"
fill="#000000" stroke="none">
<path d="M7515 8999 c-126 -3 -232 -6 -235 -7 -3 -1 2 -7 10 -12 9 -6 10 -10
3 -10 -6 0 -15 5 -18 11 -5 7 -12 6 -23 -4 -10 -8 -26 -17 -38 -21 -11 -3 -31
-16 -44 -29 -14 -12 -32 -22 -40 -23 -20 -1 -157 -106 -231 -176 -102 -97
-200 -236 -272 -389 -49 -104 -130 -334 -148 -421 -6 -29 -15 -71 -20 -93 -49
-218 -85 -616 -60 -663 7 -13 21 -17 55 -16 47 2 57 7 145 83 29 24 51 37 49
30 -2 -8 -10 -19 -18 -26 -8 -7 -12 -13 -9 -13 3 0 -25 -31 -63 -68 -37 -38
-68 -75 -68 -82 0 -11 37 -12 198 -7 481 16 853 94 1144 241 38 19 65 30 62
25 -3 -5 4 -9 15 -9 12 0 21 6 21 13 0 7 18 13 48 15 26 1 52 8 57 16 6 7 13
13 17 12 4 -1 18 7 30 16 13 9 25 16 28 15 9 -3 64 35 73 50 4 7 22 13 39 13
26 0 29 2 18 15 -10 13 -9 15 9 15 11 0 21 5 21 10 0 6 11 10 25 10 15 0 25 6
25 14 0 8 7 17 16 20 8 3 12 10 9 16 -3 5 4 14 17 19 23 9 68 54 68 69 0 4 10
12 21 17 17 8 23 21 26 56 3 43 0 51 -40 100 l-43 54 -3 465 c-1 296 -6 481
-13 509 -12 48 -70 114 -116 133 -31 12 -402 16 -747 7z m472 -325 c45 -34 67
-78 60 -122 -12 -70 -71 -122 -141 -122 -39 0 -49 -10 -545 -508 -552 -555
-635 -632 -654 -613 -9 10 -8 11 6 6 10 -4 17 -2 17 4 0 6 -6 11 -12 11 -7 0
-2 11 12 24 47 44 1035 1053 1078 1100 2 2 -6 19 -17 37 -40 65 -16 159 47
194 44 23 110 19 149 -11z m-641 -207 c63 -57 57 -152 -13 -207 -22 -17 -39
-21 -85 -19 l-58 2 -214 -219 -215 -219 -1 -130 c-2 -123 -15 -269 -19 -215
-2 22 -3 23 -10 5 -13 -32 -21 44 -21 201 0 131 1 142 23 172 13 17 109 120
213 228 104 108 190 200 192 205 2 4 -4 28 -12 52 -20 59 -7 105 40 146 30 27
43 31 89 31 48 0 60 -4 91 -33z m671 -461 c27 -30 33 -44 33 -82 0 -41 -5 -51
-39 -85 -34 -34 -44 -39 -85 -39 -26 0 -55 4 -65 9 -13 8 -36 -9 -116 -85
l-100 -95 -65 6 c-36 3 -79 9 -97 12 -29 4 -39 -1 -93 -52 -33 -32 -60 -52
-61 -44 0 10 -2 10 -6 2 -2 -7 -4 -15 -4 -18 1 -3 -9 -16 -21 -30 -24 -28 -39
-26 -17 2 12 16 11 15 -8 -1 -13 -10 -20 -23 -16 -29 3 -5 1 -7 -5 -3 -5 3
-25 -6 -44 -21 -18 -14 26 33 97 106 l130 132 100 -6 100 -7 84 92 c84 91 85
93 82 140 -5 91 50 145 139 136 35 -3 51 -11 77 -40z"/>
<path d="M7859 8627 c-53 -41 -43 -117 17 -137 86 -29 152 63 89 125 -27 27
-79 33 -106 12z"/>
<path d="M7197 8422 c-33 -34 -35 -72 -4 -106 31 -35 65 -41 103 -17 75 46 40
151 -50 151 -12 0 -34 -13 -49 -28z"/>
<path d="M7895 7988 c-46 -25 -59 -74 -29 -116 23 -33 86 -31 113 4 34 43 26
86 -20 109 -33 18 -38 18 -64 3z"/>
<path d="M5866 8435 c18 -46 15 -119 -5 -152 -33 -53 -72 -67 -183 -68 -91 0
-98 1 -99 20 -1 18 -2 19 -6 1 -4 -17 -6 -16 -17 5 -7 13 -17 23 -23 22 -5 -1
-15 14 -22 33 -7 19 -15 34 -19 34 -4 -1 -19 -17 -33 -38 -16 -22 -49 -49 -84
-67 -41 -21 -53 -31 -39 -34 10 -1 27 -10 37 -19 10 -9 17 -11 17 -4 0 7 8 12
19 12 10 0 24 7 31 15 17 21 27 19 34 -7 5 -19 8 -20 16 -8 6 10 4 22 -7 39
-13 20 -13 23 -1 18 8 -3 21 -1 28 3 17 11 42 -14 38 -37 -2 -13 3 -17 20 -16
33 4 27 -6 -15 -24 -32 -13 -35 -17 -19 -23 18 -6 18 -7 2 -13 -21 -8 -17 -42
4 -42 8 -1 14 -7 12 -14 -1 -7 2 -10 8 -6 5 3 7 17 4 29 -5 20 2 27 47 50 41
20 68 26 119 26 80 0 122 -13 174 -54 62 -48 89 -119 94 -244 3 -66 0 -108 -6
-114 -15 -15 -271 -26 -283 -12 -4 6 -11 35 -15 65 -4 39 -12 59 -25 67 -17
11 -19 9 -19 -13 0 -26 15 -34 23 -12 3 6 6 -1 6 -18 0 -20 -2 -26 -8 -17 -9
15 -21 -64 -21 -143 1 -47 3 -52 43 -82 23 -17 67 -56 99 -85 83 -78 201 -183
307 -273 82 -70 98 -80 132 -80 65 0 73 17 71 147 -5 263 -62 595 -137 798
-23 63 -136 292 -141 287 -3 -2 4 -25 15 -51 17 -38 18 -46 5 -46 -8 0 -19 11
-24 25 -5 14 -12 25 -14 25 -6 0 10 -55 20 -72 6 -10 5 -10 -8 0 -13 10 -17
10 -21 0 -3 -7 -5 -2 -4 12 2 70 -2 79 -38 86 -29 5 -34 10 -30 25 5 13 1 19
-10 19 -9 0 -26 10 -37 23 -18 20 -19 20 -12 2z m154 -199 c0 -3 -4 -8 -10
-11 -5 -3 -10 -1 -10 4 0 6 5 11 10 11 6 0 10 -2 10 -4z"/>
<path d="M5990 8441 c0 -6 4 -13 10 -16 6 -3 7 1 4 9 -7 18 -14 21 -14 7z"/>
<path d="M5500 8408 c0 -20 -3 -45 -7 -55 -5 -14 -2 -14 14 4 11 13 24 19 28
15 5 -4 5 -1 1 6 -4 7 -12 9 -18 6 -6 -4 -8 1 -4 12 3 11 1 26 -4 34 -7 11
-10 6 -10 -22z"/>
<path d="M4967 8283 c-4 -3 -7 -11 -7 -17 0 -6 5 -5 12 2 6 6 9 14 7 17 -3 3
-9 2 -12 -2z"/>
<path d="M5581 8274 c0 -11 3 -14 6 -6 3 7 2 16 -1 19 -3 4 -6 -2 -5 -13z"/>
<path d="M5550 8270 c0 -5 5 -10 11 -10 5 0 7 5 4 10 -3 6 -8 10 -11 10 -2 0
-4 -4 -4 -10z"/>
<path d="M5604 8239 c0 -21 5 -23 23 -11 9 6 8 11 -5 19 -15 9 -18 7 -18 -8z"/>
<path d="M4919 8230 l-24 -21 33 16 c31 15 41 25 23 25 -5 0 -19 -9 -32 -20z"/>
<path d="M5308 8173 c12 -2 30 -2 40 0 9 3 -1 5 -23 4 -22 0 -30 -2 -17 -4z"/>
<path d="M5410 8160 c0 -6 7 -10 15 -10 8 0 15 2 15 4 0 2 -7 6 -15 10 -8 3
-15 1 -15 -4z"/>
<path d="M5462 8153 c-13 -5 -7 -23 9 -23 6 0 7 5 3 11 -4 8 1 9 16 4 15 -5
20 -4 16 4 -7 11 -22 13 -44 4z"/>
<path d="M5530 7588 c-55 -18 -93 -21 -237 -22 -95 -1 -173 -4 -173 -8 0 -5 5
-8 10 -8 6 0 10 -8 10 -17 0 -14 2 -15 9 -4 5 7 25 15 46 17 33 2 35 1 18 -11
-13 -10 -20 -10 -25 -2 -12 20 -21 -2 -10 -25 6 -13 11 -17 11 -10 1 6 6 12
12 12 6 0 9 -7 5 -15 -3 -8 -1 -15 4 -15 6 0 10 7 10 15 0 8 5 15 10 15 6 0
10 -9 10 -21 0 -21 22 -49 39 -49 12 0 24 -37 16 -50 -3 -5 -1 -10 4 -10 6 0
11 9 11 20 0 11 5 20 11 20 7 0 9 -11 6 -29 -3 -15 -1 -33 5 -39 5 -5 7 -15 3
-22 -5 -8 -10 -6 -19 5 -6 9 -16 16 -21 15 -26 -6 -35 2 -35 30 0 28 -1 29
-24 18 l-25 -11 22 -18 c19 -15 20 -20 9 -39 -12 -19 -11 -22 7 -27 17 -4 19
-9 10 -24 -11 -22 -33 -15 -25 7 3 8 2 14 -2 14 -15 0 -62 -25 -62 -33 0 -21
23 -47 40 -47 11 0 20 -5 20 -11 0 -7 10 -9 28 -5 17 4 22 3 13 -2 -16 -11 38
-29 223 -72 142 -33 461 -70 606 -70 87 0 90 1 90 23 -1 26 -32 62 -120 137
-36 30 -67 57 -70 60 -3 3 -39 34 -80 70 -41 36 -77 67 -80 70 -3 3 -32 27
-65 55 -33 27 -74 64 -92 82 -17 18 -36 33 -42 33 -6 0 -11 5 -11 10 0 14 -26
11 -100 -12z m-248 -120 c-12 -12 -35 -1 -27 12 3 5 13 6 21 3 10 -4 12 -9 6
-15z m108 -97 c0 -17 -15 -19 -28 -5 -11 12 -9 14 8 14 11 0 20 -4 20 -9z
m-180 -121 c0 -5 -5 -10 -11 -10 -5 0 -7 5 -4 10 3 6 8 10 11 10 2 0 4 -4 4
-10z"/>
<path d="M5000 7590 c8 -5 22 -9 30 -9 10 0 8 3 -5 9 -27 12 -43 12 -25 0z"/>
<path d="M5196 7431 c-3 -4 6 -6 19 -3 14 2 25 6 25 8 0 8 -39 4 -44 -5z"/>
<path d="M5170 7325 c0 -8 9 -15 20 -15 11 0 20 7 20 15 0 8 -9 15 -20 15 -11
0 -20 -7 -20 -15z"/>
<path d="M8330 7028 c-474 -6 -552 -10 -558 -28 -5 -13 -72 -13 -72 0 0 6 -19
10 -43 10 -32 0 -44 -4 -44 -15 0 -8 9 -15 21 -15 17 0 18 -2 6 -10 -23 -15
-71 -12 -90 5 -16 14 -18 14 -23 0 -4 -8 -3 -15 1 -15 4 0 18 -9 32 -20 24
-19 25 -20 3 -20 -12 0 -28 7 -37 15 -18 18 -49 20 -43 3 2 -7 11 -12 21 -10
9 2 16 -4 16 -12 0 -10 -6 -13 -17 -10 -14 5 -15 4 -4 -4 8 -6 27 -9 43 -7 23
3 26 2 16 -9 -11 -11 -23 -10 -73 4 -117 34 -141 39 -280 64 -140 25 -292 40
-546 52 -188 9 -215 0 -169 -59 l20 -25 -61 5 -61 6 5 -199 c4 -180 16 -326
33 -409 6 -29 5 -29 -10 -10 -15 20 -15 20 -16 -2 0 -12 -7 -28 -15 -36 -13
-13 -13 -16 0 -21 8 -3 15 -16 14 -28 0 -13 -3 -17 -6 -10 -11 28 -22 8 -22
-40 0 -29 -5 -217 -10 -418 -10 -343 -17 -458 -27 -448 -4 4 -13 93 -16 151
-1 21 -6 27 -24 27 -15 0 -24 6 -24 16 0 22 -25 11 -26 -12 -1 -10 -2 -23 -3
-28 -1 -5 -8 -3 -17 5 -10 8 -14 22 -11 38 5 23 2 26 -24 26 -28 0 -30 -2 -25
-30 2 -16 2 -24 -1 -17 -2 6 -9 12 -14 12 -6 0 -21 12 -34 26 -18 20 -31 25
-51 21 -19 -3 -23 -2 -14 7 6 6 30 11 53 11 50 0 61 18 16 25 -30 5 -55 30
-30 30 6 0 8 7 5 15 -5 11 1 15 20 15 14 0 26 5 26 10 0 6 -6 10 -14 10 -7 0
-16 9 -19 21 -3 12 -3 18 0 15 7 -7 33 13 33 25 0 5 -7 6 -15 3 -8 -4 -15 -1
-15 5 0 6 7 11 15 11 8 0 15 6 15 13 0 24 -29 15 -40 -12 -6 -14 -20 -42 -31
-61 -28 -49 -14 0 16 60 50 97 127 339 160 504 33 168 55 372 55 521 l0 125
-31 0 c-18 0 -49 -13 -75 -30 -24 -17 -44 -29 -44 -26 0 3 15 26 34 50 24 32
33 54 32 78 l-2 33 -94 3 c-94 3 -385 -19 -510 -39 -108 -17 -306 -59 -393
-83 -359 -100 -693 -346 -819 -604 l-33 -67 -3 -496 c-3 -355 0 -509 8 -540
15 -55 97 -139 155 -157 22 -7 114 -16 205 -19 91 -3 159 -8 153 -10 -7 -3
-13 -9 -13 -14 0 -4 6 -6 13 -3 8 3 27 -1 43 -7 16 -7 36 -13 44 -14 8 -1 69
-12 135 -23 66 -11 176 -23 245 -27 237 -12 230 -11 283 -48 27 -18 29 -18 48
-2 18 17 19 17 19 -5 0 -12 10 -32 23 -43 l22 -19 -25 7 -25 7 25 -19 c14 -11
35 -25 48 -32 12 -7 20 -16 17 -21 -3 -5 12 -27 34 -49 37 -37 42 -39 73 -30
59 16 88 10 227 -50 75 -32 146 -62 159 -66 12 -3 22 -11 22 -16 0 -12 -1 -12
-51 11 -53 24 -82 27 -53 5 18 -14 18 -14 -11 -16 -16 -1 -39 -1 -50 -1 -16 2
-17 0 -5 -8 11 -7 7 -10 -20 -11 l-35 -1 40 -8 c22 -4 45 -5 50 -1 15 9 55 8
49 -1 -3 -4 -13 -8 -22 -8 -9 0 -35 -12 -57 -25 -50 -31 -53 -31 -50 0 2 16
-2 25 -11 25 -8 0 -14 -4 -14 -10 0 -5 5 -10 10 -10 12 0 13 -10 1 -29 -8 -12
-33 -17 -101 -21 -12 0 -12 -2 -1 -9 9 -6 4 -10 -17 -13 -32 -5 -107 25 -131
52 -9 11 -9 8 1 -10 49 -81 142 -87 316 -21 62 24 116 41 119 37 4 -3 1 -6 -5
-6 -6 0 -13 -13 -17 -30 -5 -21 -12 -30 -27 -30 -17 0 -18 2 -8 15 16 19 5 19
-53 -1 -26 -9 -47 -20 -47 -26 0 -6 -7 -8 -14 -5 -10 4 -13 1 -10 -8 4 -10 -1
-12 -18 -8 -13 3 -20 3 -16 -1 14 -16 90 -27 104 -15 11 9 14 7 14 -10 0 -19
-4 -21 -22 -16 -13 4 -25 7 -28 7 -26 1 -31 -4 -25 -22 5 -17 2 -19 -35 -14
-23 3 -39 1 -37 -3 3 -5 20 -10 38 -11 18 -1 35 -4 37 -6 9 -10 -21 -46 -38
-46 -11 0 -20 -4 -20 -10 0 -20 24 -60 37 -60 23 0 14 -18 -12 -24 -30 -8 -89
15 -104 41 -6 10 -11 13 -11 8 0 -21 34 -57 66 -71 39 -16 107 -18 134 -4 13
7 19 6 24 -5 3 -8 16 -15 28 -15 18 0 28 -10 43 -42 11 -24 35 -53 54 -66 30
-20 44 -22 120 -18 113 5 178 23 204 58 12 16 26 28 33 28 7 0 19 6 26 14 8 7
27 20 44 29 40 21 61 46 79 96 9 26 36 64 66 94 29 28 48 55 45 63 -3 8 1 14
9 14 9 0 12 6 9 15 -4 9 4 23 17 35 13 10 18 19 12 20 -7 0 -13 7 -13 16 0 8
4 12 10 9 6 -4 7 1 3 10 -3 10 0 21 8 26 12 8 12 11 -1 19 -10 6 -11 10 -2 10
6 0 11 3 10 8 -3 15 17 47 41 68 15 12 37 31 50 43 13 12 28 21 33 21 4 0 8 6
8 13 0 7 18 23 40 36 22 12 43 28 47 35 9 15 153 111 168 111 6 1 19 6 31 12
34 19 212 53 304 58 47 3 108 8 137 10 30 3 54 1 58 -5 4 -6 12 -7 18 -3 7 4
28 8 47 9 19 1 37 3 40 4 3 1 18 1 33 0 31 -2 115 15 161 33 40 15 107 77 83
77 -14 0 -10 8 17 35 78 77 85 116 86 433 1 230 3 262 17 262 10 0 13 6 9 16
-3 8 -1 25 6 37 7 12 11 27 10 34 -1 6 2 14 8 18 5 3 10 17 10 30 0 13 4 26 9
29 5 3 18 24 30 46 20 39 40 64 128 160 24 26 40 50 36 53 -3 4 1 7 11 7 9 0
21 11 26 24 5 13 18 27 30 31 12 4 20 9 17 11 -2 3 41 48 96 102 55 53 109
106 119 117 10 11 38 42 63 68 25 27 45 52 45 56 0 4 10 18 23 31 26 29 48
123 36 162 -4 16 -5 28 -2 28 3 0 0 7 -7 15 -10 12 -6 23 26 61 62 73 85 108
82 124 -4 18 -116 19 -868 8z m-690 -88 c0 -5 -5 -10 -11 -10 -5 0 -7 5 -4 10
3 6 8 10 11 10 2 0 4 -4 4 -10z m43 -22 c3 -8 -5 -14 -20 -14 -19 -2 -22 1
-12 12 14 17 25 18 32 2z m-82 -42 c5 3 9 1 9 -5 0 -5 16 -15 35 -21 19 -6 35
-16 35 -21 0 -6 -3 -8 -7 -6 -14 7 -77 35 -98 41 -16 6 -17 9 -5 16 9 6 16 6
18 0 2 -6 8 -8 13 -4z m154 -84 c-3 -3 -11 0 -18 7 -9 10 -8 11 6 5 10 -3 15
-9 12 -12z m-2272 -189 c135 -39 278 -146 355 -265 91 -141 123 -321 83 -478
-28 -113 -88 -233 -118 -237 -13 -2 -23 0 -23 3 0 13 52 79 62 79 7 0 14 9 16
20 3 17 1 18 -8 5 -10 -12 -11 -12 -5 5 24 66 37 116 44 162 l8 52 -31 3 c-17
2 -81 2 -142 0 l-112 -3 -12 -82 c-6 -45 -14 -93 -17 -108 -4 -23 2 -28 72
-63 42 -21 79 -44 82 -52 3 -8 11 -14 19 -14 25 0 9 -34 -38 -85 -52 -56 -56
-76 -5 -27 18 18 36 32 41 32 22 0 -118 -105 -182 -136 -106 -52 -205 -70
-313 -56 -312 38 -559 316 -559 627 1 179 70 337 204 462 165 155 383 214 579
156z m2317 -83 c12 -22 4 -639 -8 -652 -4 -4 -220 -8 -481 -9 -384 -2 -475 1
-481 11 -14 22 -13 640 1 656 9 12 92 14 485 14 462 0 474 0 484 -20z m-1380
-245 c0 -8 -2 -15 -4 -15 -2 0 -6 7 -10 15 -3 8 -1 15 4 15 6 0 10 -7 10 -15z
m1976 -452 c-10 -10 -19 5 -10 18 6 11 8 11 12 0 2 -7 1 -15 -2 -18z m-1045
-32 l486 -1 36 -31 c43 -37 74 -118 56 -151 -10 -18 -24 -19 -512 -16 -553 3
-523 0 -589 70 -65 68 -61 142 6 134 17 -2 250 -4 517 -5z m-1311 -150 c0 -5
-9 -19 -20 -32 l-20 -24 17 32 c19 34 23 39 23 24z m-247 -56 c-10 -13 -22
-25 -26 -25 -4 0 0 11 10 25 10 13 22 25 26 25 4 0 0 -11 -10 -25z m407 -115
c0 -5 -4 -10 -10 -10 -5 0 -10 5 -10 10 0 6 5 10 10 10 6 0 10 -4 10 -10z m90
-10 c-20 -13 -33 -13 -25 0 3 6 14 10 23 10 15 0 15 -2 2 -10z m-220 -31 c7
-11 9 -24 5 -27 -7 -7 -35 25 -35 40 0 16 19 8 30 -13z m178 4 c-2 -9 -10 -18
-18 -20 -13 -4 -13 -3 -1 6 15 10 16 10 -54 24 -11 3 2 5 28 6 40 1 48 -2 45
-16z m7 -43 c3 -5 1 -10 -4 -10 -6 0 -11 5 -11 10 0 6 2 10 4 10 3 0 8 -4 11
-10z m-110 -10 c3 -6 -4 -10 -17 -10 -18 0 -20 2 -8 10 19 12 18 12 25 0z m-8
-46 c-3 -3 -12 -4 -19 -1 -8 3 -5 6 6 6 11 1 17 -2 13 -5z m-32 -84 c3 -6 -1
-7 -9 -4 -18 7 -21 14 -7 14 6 0 13 -4 16 -10z m304 -159 c31 -22 57 -59 66
-91 5 -19 4 -22 -4 -10 -7 9 -11 10 -11 3 0 -6 5 -15 10 -18 21 -13 6 -140
-21 -169 -4 -5 -12 7 -17 25 -7 22 -11 27 -11 14 -1 -12 -6 -26 -12 -32 -9 -9
-7 -16 6 -29 17 -17 17 -17 11 6 -5 19 -5 21 3 9 16 -24 -17 -103 -36 -88 -7
6 -13 9 -13 5 0 -11 -57 23 -63 37 -3 8 -1 20 4 28 12 19 11 39 -1 39 -5 0
-10 -12 -10 -26 0 -22 -2 -25 -15 -14 -9 8 -15 8 -15 2 0 -6 4 -12 8 -14 5 -1
18 -33 29 -70 11 -37 18 -66 14 -63 -6 3 -15 22 -74 155 -36 83 -47 122 -47
173 0 64 27 108 83 136 46 23 77 21 116 -8z m-429 -7 c0 -2 -7 -4 -15 -4 -8 0
-15 4 -15 10 0 5 7 7 15 4 8 -4 15 -8 15 -10z m-80 -14 c0 -5 -5 -10 -11 -10
-5 0 -7 5 -4 10 3 6 8 10 11 10 2 0 4 -4 4 -10z m70 -84 c0 -3 -4 -8 -10 -11
-5 -3 -10 -1 -10 4 0 6 5 11 10 11 6 0 10 -2 10 -4z m142 -26 c33 -15 63 -66
108 -182 35 -90 38 -104 24 -111 -9 -5 -12 -12 -7 -16 6 -3 13 -18 17 -33 l6
-28 -72 26 c-210 75 -274 128 -272 226 0 39 6 54 30 79 16 17 38 35 49 39 29
12 90 12 117 0z m591 -3 c18 -8 38 -21 45 -29 11 -14 7 -14 -32 0 -37 14 -48
14 -58 4 -10 -10 -10 -15 2 -22 8 -5 10 -10 5 -10 -6 0 -19 10 -30 22 -14 17
-20 19 -23 9 -3 -8 -18 -28 -35 -45 -17 -17 -27 -25 -23 -18 4 6 2 12 -4 12
-6 0 -10 -8 -9 -17 3 -34 -1 -54 -10 -49 -5 3 -25 -28 -45 -69 -38 -78 -42
-90 -26 -80 6 3 7 -1 3 -10 -4 -12 -8 -13 -13 -5 -5 8 -10 1 -15 -18 -3 -17
-13 -36 -21 -43 -15 -12 -12 -3 48 146 11 28 26 67 34 88 46 122 119 170 207
134z m-963 -98 c0 -5 -4 -9 -10 -9 -5 0 -10 7 -10 16 0 8 5 12 10 9 6 -3 10
-10 10 -16z m641 -172 c-1 -4 -1 -14 -1 -22 0 -8 -6 -12 -14 -9 -15 6 -10 47
6 42 5 -2 9 -7 9 -11z m445 -43 c34 -16 49 -42 17 -29 -63 25 -163 28 -171 4
-2 -5 -10 -9 -17 -9 -7 0 -32 -9 -56 -20 -41 -18 -79 -27 -67 -14 3 3 48 23
99 44 104 43 144 48 195 24z m-533 -58 c4 -10 1 -13 -8 -9 -8 3 -12 9 -9 14 7
12 11 11 17 -5z m187 -38 c-14 -5 -33 -14 -43 -20 -11 -5 -21 -7 -23 -5 -6 6
58 37 76 36 8 0 4 -5 -10 -11z m-225 -38 c3 -6 -1 -7 -9 -4 -18 7 -21 14 -7
14 6 0 13 -4 16 -10z m-90 -10 c-3 -5 -12 -10 -18 -10 -7 0 -6 4 3 10 19 12
23 12 15 0z m140 -49 c-3 -12 -11 -21 -16 -21 -6 0 -7 6 -2 13 4 6 8 15 9 20
1 4 2 10 3 14 0 3 4 4 7 0 3 -3 3 -15 -1 -26z m58 -21 c3 -11 1 -18 -3 -15 -5
3 -14 -11 -20 -30 -6 -19 -15 -35 -20 -35 -4 0 -13 -14 -19 -32 -6 -17 -14
-28 -17 -25 -6 6 63 157 71 157 1 0 5 -9 8 -20z m62 -8 c-3 -3 -11 0 -18 7 -9
10 -8 11 6 5 10 -3 15 -9 12 -12z m80 8 c13 -6 15 -9 5 -9 -8 0 -22 4 -30 9
-18 12 -2 12 25 0z m-227 -30 c-7 -11 -15 -15 -17 -9 -2 6 3 15 10 20 20 12
21 11 7 -11z m162 -25 c0 -5 -5 -3 -10 5 -5 8 -10 20 -10 25 0 6 5 3 10 -5 5
-8 10 -19 10 -25z m-280 5 c0 -5 -5 -10 -11 -10 -5 0 -7 5 -4 10 3 6 8 10 11
10 2 0 4 -4 4 -10z m-12 -19 c10 -6 9 -10 -7 -14 -21 -5 -36 5 -24 17 8 8 15
7 31 -3z m108 -142 c-9 -19 -15 -29 -16 -22 0 15 22 64 27 60 2 -2 -3 -19 -11
-38z m-169 -40 c-1 -13 -5 -14 -19 -5 -23 14 -23 25 1 23 12 -1 19 -8 18 -18z"/>
<path d="M5277 6541 c-34 -31 -86 -126 -118 -219 -17 -50 -17 -53 -1 -60 22
-9 348 -9 357 0 12 12 -43 160 -81 219 -36 55 -77 89 -108 89 -8 0 -30 -13
-49 -29z"/>
<path d="M5091 6502 c-83 -40 -189 -131 -177 -150 11 -18 96 -59 138 -67 34
-7 35 -6 41 29 4 27 45 122 95 219 8 15 -26 5 -97 -31z"/>
<path d="M5501 6484 c16 -31 39 -88 50 -128 12 -39 24 -74 28 -78 14 -16 181
52 181 73 0 18 -136 129 -194 158 -93 46 -101 43 -65 -25z"/>
<path d="M4836 6267 c-31 -54 -63 -148 -72 -215 l-7 -52 141 0 141 0 5 45 c3
25 9 66 12 93 3 26 7 54 10 63 4 13 -7 20 -45 29 -28 6 -75 27 -106 45 l-55
34 -24 -42z"/>
<path d="M5755 6280 c-16 -11 -61 -30 -98 -41 -62 -19 -68 -24 -63 -44 3 -12
9 -61 12 -109 l7 -87 141 3 141 3 -3 30 c-9 92 -71 265 -96 265 -6 0 -24 -9
-41 -20z"/>
<path d="M5125 6200 c-4 -7 -25 -164 -25 -187 0 -10 50 -13 230 -13 l230 0 0
24 c0 24 -20 179 -24 183 -1 1 -49 -3 -106 -8 -60 -5 -147 -6 -203 -1 -54 4
-100 5 -102 2z"/>
<path d="M4765 5940 c-17 -27 50 -223 97 -284 15 -19 17 -19 62 11 26 17 69
39 96 49 36 13 49 22 46 33 -3 9 -7 41 -11 71 -3 30 -8 72 -11 93 l-6 37 -133
0 c-80 0 -136 -4 -140 -10z"/>
<path d="M5104 5935 c-3 -8 -1 -51 5 -96 6 -45 11 -85 11 -88 0 -3 93 -6 207
-5 l208 1 6 34 c4 18 11 64 14 101 l7 68 -226 0 c-191 0 -228 -2 -232 -15z"/>
<path d="M5253 5700 c-56 -3 -104 -8 -108 -12 -19 -19 59 -181 117 -244 66
-72 114 -55 185 65 35 58 76 172 66 182 -11 10 -138 15 -260 9z"/>
<path d="M5005 5652 c-33 -16 -67 -37 -75 -47 -13 -16 -10 -21 34 -61 46 -42
230 -143 241 -132 3 3 -15 38 -39 79 -24 41 -52 100 -62 131 -11 32 -23 58
-29 58 -5 0 -37 -13 -70 -28z"/>
<path d="M5541 5613 c-13 -38 -35 -85 -48 -105 -12 -21 -23 -41 -23 -45 0 -3
-7 -15 -17 -25 -29 -32 -5 -32 76 0 86 33 145 72 184 118 22 26 34 69 17 59
-4 -3 -18 3 -31 13 -26 20 -101 52 -122 52 -7 0 -23 -30 -36 -67z"/>
<path d="M5505 5410 c-3 -5 -1 -10 4 -10 6 0 11 5 11 10 0 6 -2 10 -4 10 -3 0
-8 -4 -11 -10z"/>
<path d="M6910 6195 l0 -265 408 2 407 3 1 220 c0 121 -2 239 -4 263 l-4 42
-404 0 -404 0 0 -265z"/>
<path d="M7150 5690 c-8 -5 -12 -11 -9 -14 9 -9 325 -15 339 -6 7 4 9 13 6 19
-9 14 -314 15 -336 1z"/>
<path d="M6430 5036 c0 -2 8 -10 18 -17 15 -13 16 -12 3 4 -13 16 -21 21 -21
13z"/>
<path d="M6427 4904 c-3 -4 -2 -15 4 -26 8 -15 13 -17 25 -7 20 16 17 39 -4
39 -10 0 -22 -3 -25 -6z m33 -8 c0 -3 -4 -8 -10 -11 -5 -3 -10 -1 -10 4 0 6 5
11 10 11 6 0 10 -2 10 -4z"/>
<path d="M6341 4761 c-9 -16 -6 -18 18 -17 21 1 27 5 23 19 -6 22 -29 22 -41
-2z"/>
<path d="M6210 4730 c0 -5 5 -10 10 -10 6 0 10 5 10 10 0 6 -4 10 -10 10 -5 0
-10 -4 -10 -10z"/>
<path d="M6170 4696 c0 -2 7 -6 15 -10 8 -3 15 -1 15 4 0 6 -7 10 -15 10 -8 0
-15 -2 -15 -4z"/>
<path d="M6152 4670 c7 -10 14 -18 15 -16 6 6 -9 36 -18 36 -5 0 -4 -9 3 -20z"/>
<path d="M6187 4652 c1 -8 3 -16 3 -18 0 -2 6 -4 14 -4 8 0 16 -6 19 -12 2 -7
8 -10 12 -6 10 9 -13 38 -30 38 -8 0 -15 3 -18 8 -2 4 -2 1 0 -6z"/>
<path d="M6520 4839 c0 -5 5 -7 10 -4 6 3 10 8 10 11 0 2 -4 4 -10 4 -5 0 -10
-5 -10 -11z"/>
<path d="M7728 7003 c7 -3 16 -2 19 1 4 3 -2 6 -13 5 -11 0 -14 -3 -6 -6z"/>
<path d="M7431 6961 c-11 -7 -11 -9 0 -14 8 -3 3 -6 -11 -7 -23 -1 -23 -2 -5
-9 14 -6 24 -3 32 8 22 28 13 40 -16 22z"/>
<path d="M6397 6363 c-4 -3 -7 -11 -7 -17 0 -6 5 -5 12 2 6 6 9 14 7 17 -3 3
-9 2 -12 -2z"/>
<path d="M6152 5761 c2 -7 7 -12 11 -12 12 1 9 15 -3 20 -7 2 -11 -2 -8 -8z"/>
<path d="M6180 5650 c0 -5 5 -10 10 -10 6 0 10 5 10 10 0 6 -4 10 -10 10 -5 0
-10 -4 -10 -10z"/>
<path d="M6128 5613 c6 -2 18 -2 25 0 6 3 1 5 -13 5 -14 0 -19 -2 -12 -5z"/>
<path d="M6281 5564 c0 -11 3 -14 6 -6 3 7 2 16 -1 19 -3 4 -6 -2 -5 -13z"/>
<path d="M6280 5520 c0 -5 9 -10 20 -10 11 0 20 5 20 10 0 6 -9 10 -20 10 -11
0 -20 -4 -20 -10z"/>
<path d="M5674 4839 c-3 -6 -1 -16 5 -22 8 -8 11 -5 11 11 0 24 -5 28 -16 11z"/>
<path d="M6153 4554 c-15 -16 -16 -24 -4 -24 8 0 24 30 19 35 -2 2 -9 -3 -15
-11z"/>
<path d="M6015 4540 c3 -5 8 -10 11 -10 2 0 4 5 4 10 0 6 -5 10 -11 10 -5 0
-7 -4 -4 -10z"/>
<path d="M6056 4521 c-4 -7 -5 -15 -2 -18 9 -9 19 4 14 18 -4 11 -6 11 -12 0z"/>
<path d="M6105 4470 c3 -5 8 -10 11 -10 2 0 4 5 4 10 0 6 -5 10 -11 10 -5 0
-7 -4 -4 -10z"/>
<path d="M9525 3911 c-34 -15 -56 -48 -62 -90 -5 -37 -2 -44 35 -81 35 -35 45
-40 87 -40 38 0 52 5 75 29 49 49 52 105 7 157 -18 21 -34 27 -73 30 -27 2
-58 0 -69 -5z"/>
<path d="M3347 3890 c-68 -12 -167 -61 -212 -105 -50 -50 -77 -115 -83 -196
-6 -85 16 -152 67 -211 49 -55 106 -86 253 -137 64 -22 131 -47 148 -56 34
-18 70 -69 70 -100 0 -34 -39 -85 -75 -101 -76 -31 -237 -9 -365 50 -30 14
-58 22 -62 18 -8 -8 -70 -184 -65 -188 1 -1 30 -16 64 -33 140 -70 319 -96
464 -67 98 20 149 47 208 111 62 67 75 104 75 210 1 192 -74 268 -354 360
-138 46 -187 84 -176 137 9 47 42 76 101 89 67 15 138 6 244 -31 l83 -28 13
31 c7 18 19 60 26 95 16 77 13 81 -91 116 -128 42 -228 53 -333 36z"/>
<path d="M8447 3804 c-48 -7 -94 -15 -102 -18 -10 -4 -15 -28 -17 -93 l-3 -88
-70 -5 -70 -5 -3 -78 c-2 -50 1 -84 9 -93 7 -9 32 -14 70 -14 58 0 58 0 63
-32 3 -18 7 -121 9 -228 3 -178 5 -199 26 -247 41 -94 136 -153 243 -153 49 0
176 28 184 41 8 13 -15 150 -28 166 -7 8 -17 9 -34 2 -37 -14 -97 -11 -120 6
-40 27 -46 63 -42 249 1 96 7 178 11 183 5 4 53 10 108 11 l100 4 -3 91 c-3
84 -5 92 -23 94 -11 1 -59 5 -107 8 l-88 7 0 93 c0 62 -4 96 -12 102 -8 6 -46
5 -101 -3z"/>
<path d="M4165 3616 c-76 -18 -170 -53 -183 -69 -16 -19 19 -173 38 -170 8 1
47 11 85 23 44 14 98 22 147 23 68 1 80 -2 112 -27 38 -29 49 -45 60 -88 l6
-28 -102 0 c-189 0 -299 -31 -362 -100 -64 -71 -76 -199 -28 -290 70 -135 268
-178 424 -93 26 14 49 24 51 22 1 -2 7 -13 13 -24 10 -18 22 -20 115 -20 l104
0 0 310 0 310 -28 57 c-54 110 -154 166 -307 174 -52 2 -108 -2 -145 -10z
m255 -549 c0 -47 -4 -57 -32 -85 -101 -96 -248 -76 -248 35 0 77 44 101 188
102 l92 1 0 -53z"/>
<path d="M5800 3615 c-91 -20 -181 -55 -187 -73 -7 -16 24 -159 35 -166 4 -2
41 7 82 22 56 19 94 25 151 25 95 -1 134 -19 160 -76 30 -67 30 -67 -78 -67
-240 0 -371 -59 -408 -184 -40 -135 7 -256 121 -312 107 -52 256 -40 340 27
l38 30 12 -33 11 -33 100 -3 101 -3 7 50 c9 63 -4 544 -16 583 -25 87 -98 164
-189 199 -68 26 -198 32 -280 14z m254 -511 c3 -9 6 -32 6 -51 0 -65 -94 -133
-185 -133 -38 0 -52 5 -77 30 -27 27 -30 36 -25 71 6 48 31 79 56 72 11 -3 21
2 24 11 9 24 192 24 201 0z"/>
<path d="M6820 3616 c-48 -13 -109 -46 -130 -71 -19 -23 -37 -18 -45 12 -12
50 -20 53 -118 48 -49 -3 -94 -8 -98 -11 -12 -7 -11 -1115 1 -1134 7 -11 33
-16 107 -18 54 -1 103 1 109 5 8 5 13 64 15 175 2 91 7 169 10 172 3 4 28 -3
54 -14 26 -11 78 -26 115 -32 57 -10 78 -9 141 6 94 23 133 43 189 99 160 156
172 474 25 653 -81 99 -242 146 -375 110z m136 -215 c94 -43 133 -155 102
-293 -16 -67 -83 -140 -143 -157 -79 -22 -165 -8 -222 35 l-33 25 0 154 c0
128 3 156 16 170 9 9 13 19 9 23 -4 4 19 19 52 34 72 33 158 37 219 9z"/>
<path d="M7660 3620 c-54 -9 -131 -32 -182 -54 -26 -11 -38 -23 -38 -37 0 -31
31 -159 38 -159 4 0 45 12 91 25 153 45 283 27 310 -44 29 -75 33 -71 -76 -71
-235 -1 -346 -43 -406 -155 -30 -56 -30 -173 1 -231 59 -113 205 -168 347
-130 28 7 65 20 83 30 17 9 32 14 32 10 0 -4 6 -1 13 5 11 8 16 5 25 -14 11
-24 15 -25 112 -25 99 0 100 0 106 26 4 15 4 153 1 308 -6 312 -12 343 -71
413 -78 90 -227 130 -386 103z m230 -553 c0 -47 -4 -57 -32 -84 -46 -43 -90
-63 -138 -63 -88 0 -137 61 -106 133 12 30 56 70 56 52 0 -3 8 -1 18 4 9 6 59
11 110 11 l92 0 0 -53z"/>
<path d="M9235 3596 c-27 -13 -65 -38 -82 -55 -36 -35 -35 -35 -45 34 -3 19
-11 20 -113 20 l-110 0 0 -410 0 -410 117 -3 117 -3 3 260 c3 242 4 261 22
274 12 9 16 19 11 27 -6 10 -4 12 8 7 10 -4 16 -2 14 6 -1 7 6 11 15 11 10 -1
16 2 13 6 -5 8 106 37 160 42 l30 3 0 105 0 105 -55 3 c-42 2 -67 -4 -105 -22z"/>
<path d="M5311 3601 c-6 -4 -49 -121 -96 -260 -46 -138 -88 -259 -93 -267 -6
-11 -24 27 -62 133 -29 81 -73 203 -97 271 l-45 122 -114 0 c-103 0 -114 -2
-114 -18 0 -10 19 -65 41 -123 23 -57 93 -233 155 -392 63 -158 114 -293 114
-300 0 -6 -14 -36 -31 -65 -36 -63 -72 -82 -154 -82 l-55 0 0 -94 c0 -76 3
-95 16 -100 44 -17 194 3 254 34 73 38 154 151 204 285 33 86 148 386 211 550
84 217 106 287 93 303 -12 14 -205 16 -227 3z"/>
<path d="M9527 3603 l-57 -4 2 -412 3 -412 115 0 115 0 3 398 c1 263 -1 405
-8 417 -11 21 -24 22 -173 13z"/>
</g>
</svg>
